# xmcd
#
# Track frame offsets:
#	150
#	18080
#	30900
#	47420
#	63450
#	76767
#	89925
#	109253
#	126143
#	153075
#	174950
#	191223
#
# Disc length: 2789 seconds
#
# Revision: 24
# Processed by: cddbd v1.5.2PL0 Copyright (c) Steve Scherf et al.
# Submitted via: audiograbber 1.83.01
#
DISCID=8c0ae30c
DTITLE=Various Artist - The Lion King
DYEAR=1994
DGENRE=Soundtrack
TTITLE0=Carmen Twillie - Circle of Life (OST)
TTITLE1=Jason Weaver - I Just Can't Wait to be King (OST)
TTITLE2=Jeremy Irons - Be Prepared (OST)
TTITLE3=Nathan Lane - Hakuna Matata  (OST)
TTITLE4=Joseph Williams and Sally Dworsky - Can You Feel the Love Tonight  (OST
TTITLE4=)
TTITLE5=(Instrumental) - This Land
TTITLE6=(Instrumental) - To Die For
TTITLE7=(Instrumental) - Under the Stars
TTITLE8=(Instrumental) - King of Pride Rock
TTITLE9=Elton John - Circle of Life
TTITLE10=Elton John - I Just Can't Wait to be King
TTITLE11=Elton John - Can You Feel the Love Tonight
EXTD=The Lion King\nOriginal Motion Picture Soundtrack\nMusic by Elton John\nLy
EXTD=rics by Tim Rice\nScore composed by Hans Zimmer YEAR: 1994
EXTT0=
EXTT1=
EXTT2=
EXTT3=
EXTT4=
EXTT5=
EXTT6=
EXTT7=
EXTT8=
EXTT9=
EXTT10=
EXTT11=
PLAYORDER=
